A horror-thriller centered on a woman living with "face-blindness" after surviving a serial killer's attack. As she lives with her condition, one in which facial features change each time she loses sight of them, the killer closes in. 

CAST:

Milla Jovovich................Anna Marchant
Sarah Wayne Callies...........Francine
Julian McMahon................Kerrest
Michael Shanks................Bryce
Sandrine Holt.................Nina #6
Valentina Vargas..............Nina
Marianne Faithfull............Dr. Langenkamp
Anthony Lemke.................Bryce #3
Apollonia Vanova..............Anna #4
Sebastien Roberts.............Lanyon / Stranger / Lurker
Kirsten Robek.................Francine #3
Nels Lennarson................Kerrest #2
Stephen Huszar................Bryce #4
David Ingram..................Bryce #2

SOURCE:Faces in the Crowd 2011 Blu-Ray 1080p AVC TrueHD 5.1-HDChina

SAMPLE INCLUDED:60s/13.6mb

General
*******
Format                           : Matroska
File size                        : 1.37 GiB
Duration                         : 1h 42mn
Overall bit rate                 : 1 916 Kbps
Encoded date                     : UTC 2011-10-09 22:53:28
Writing application              : mkvmerge v5.0.0 ('Die Wahre Liebe') built on Sep 25 2011 20:33:49
Writing library                  : libebml v1.2.2 + libmatroska v1.3.0

Video
*****
ID                               : 1
Format                           : AVC
Format/Info                      : Advanced Video Codec
Format profile                   : Main@L3.0
Format settings, CABAC           : Yes
Format settings, ReFrames        : 4 frames
Muxing mode                      : Container profile=Unknown@3.0
Codec ID                         : V_MPEG4/ISO/AVC
Duration                         : 1h 42mn
Bit rate                         : 1 430 Kbps
Nominal bit rate                 : 1 458 Kbps
Width                            : 720 pixels
Height                           : 304 pixels
Display aspect ratio             : 2.35:1
Frame rate mode                  : Variable
Frame rate                       : 23.976 fps
Resolution                       : 8 bits
Colorimetry                      : 4:2:0
Scan type                        : Progressive
Bits/(Pixel*Frame)               : 0.272
Stream size                      : 1.02 GiB (75%)
Writing library                  : x264 core 112


Audio
*****
ID                               : 2
Format                           : AC-3
Format/Info                      : Audio Coding 3
Codec ID                         : A_AC3
Duration                         : 1h 42mn
Bit rate mode                    : Constant
Bit rate                         : 448 Kbps
Channel(s)                       : 6 channels
Channel positions                : Front: L C R, Side: L R, LFE
Sampling rate                    : 48.0 KHz
Stream size                      : 329 MiB (23%)

Text(subtitles)
ID                               : 3
Format                           : VobSub
Codec ID                         : S_VOBSUB
Codec ID/Info                    : The same subtitle format used on DVDs
Language                         : SPANISH
Language                         : ENGLISH

PLEASE SEED FOR AS LONG AS POSSIBLE!
